# xmcd
#
# Track frame offsets:
#	150
#	23868
#	50783
#	69530
#	88864
#	106008
#	126093
#	143973
#	162770
#	181523
#	200833
#	223958
#	253275
#	290563
#
# Disc length: 4440 seconds
#
# Revision: 2
# Processed by: cddbd v1.5.2PL0 Copyright (c) Steve Scherf et al.
# Submitted via: audiograbber 1.83.01
#
DISCID=da11560e
DTITLE=Trijntje Oosterhuis - See you as I do
DYEAR=2005
DGENRE=Jazz
TTITLE0=Everybody Needs Somebody
TTITLE1=See You As I Do
TTITLE2=To Forget You
TTITLE3=Hurting Game
TTITLE4=On The 4th Of July
TTITLE5=It Isn't Over
TTITLE6=How I Wish
TTITLE7=Friends Of Mine
TTITLE8=Joy
TTITLE9=My Angel
TTITLE10=What More Can I Say
TTITLE11=Wild Horses
TTITLE12=Mother's Love
TTITLE13=CD Player
EXTD=YEAR: 2005
EXTT0=
EXTT1=
EXTT2=
EXTT3=
EXTT4=
EXTT5=
EXTT6=
EXTT7=
EXTT8=
EXTT9=
EXTT10=
EXTT11=
EXTT12=
EXTT13=
PLAYORDER=
